<svg width="640" height="124" viewBox="0 0 640 124" fill="none" xmlns="http://www.w3.org/2000/svg">
<rect x="1" y="1" width="289" height="122" rx="11" stroke="black" stroke-width="2"/>
<path d="M126.656 33V23.8047H123.492V21.9062H131.883V23.8047H128.719V33H126.656ZM137.719 33.1562C134.852 33.1562 133.227 31.625 133.227 28.8438C133.227 26.1406 134.617 24.5625 137.031 24.5625C139.391 24.5625 140.742 25.9844 140.742 28.625C140.742 29.0156 140.727 29.3594 140.695 29.6953H135.438C135.758 30.6562 136.609 31.1562 137.906 31.1562C138.656 31.1562 139.375 31.0781 140.133 30.9375L140.336 32.9375C139.273 33.125 138.391 33.1562 137.719 33.1562ZM135.336 28.2266H138.664C138.664 27.1094 138.062 26.5 137.047 26.5C136.094 26.5 135.484 27.1172 135.336 28.2266ZM148.305 33V27.3906C148.305 26.8125 148.141 26.5312 147.805 26.5312C147.43 26.5312 147.242 26.8359 147.242 27.4609V33H145.672V27.2344C145.672 26.7656 145.5 26.5312 145.172 26.5312C144.773 26.5312 144.578 26.8359 144.578 27.4609V33H142.492V24.7188H144.391L144.5 25.75H144.688C144.797 24.9844 145.242 24.5625 145.945 24.5625C146.602 24.5625 147.047 24.9531 147.195 25.75H147.383C147.477 25.0078 147.977 24.5625 148.773 24.5625C149.891 24.5625 150.383 25.1406 150.383 26.5156V33H148.305ZM152.305 36.5938V24.7188H154.266L154.398 26.2188H154.547C154.742 25.1094 155.359 24.5625 156.617 24.5625C158.688 24.5625 159.883 26.1328 159.883 28.8672C159.883 31.6328 158.688 33.1562 156.633 33.1562C155.477 33.1562 154.758 32.6016 154.594 31.5H154.422V36.5938H152.305ZM154.422 28.8672C154.422 30.4766 154.836 31.1641 156.039 31.1641C157.141 31.1641 157.719 30.3906 157.719 28.8672C157.719 27.3984 157.109 26.5547 156.039 26.5547C154.961 26.5547 154.422 27.2656 154.422 28.8672ZM166.422 33.1562C164.336 33.1562 163.477 32.0703 163.477 29.5469V23.2266H161.133V21.2812H165.586V29.4688C165.586 30.5078 165.812 30.9531 167.047 30.9531C167.539 30.9531 168.062 30.8594 168.781 30.6562L169.023 32.8281C168.133 33.0625 167.359 33.1562 166.422 33.1562Z" fill="black"/>
<path d="M22.875 64V54.3906H19.625V52.9062H27.75V54.3906H24.5V64H22.875ZM33.7812 64.1562C30.9531 64.1562 29.3594 62.625 29.3594 59.8438C29.3594 57.1406 30.7188 55.5625 33.0938 55.5625C35.3281 55.5625 36.6094 56.9531 36.6094 59.5312C36.6094 59.9219 36.5938 60.2656 36.5625 60.5938H30.9688C31.2578 61.9766 32.3047 62.7031 33.9688 62.7031C34.6562 62.7031 35.3125 62.625 36 62.4844L36.2031 63.9375C35.2188 64.125 34.4062 64.1562 33.7812 64.1562ZM30.9062 59.3281H35.1094C35.1094 57.8438 34.3594 57.0156 33.1094 57.0156C31.8281 57.0156 31.0391 57.8516 30.9062 59.3281ZM44.5938 64V57.6719C44.5938 57.0938 44.3906 56.8125 43.9531 56.8125C43.4062 56.8125 43.1406 57.1875 43.1406 57.9375V64H41.7344V57.5156C41.7344 57.0469 41.5156 56.8125 41.0781 56.8125C40.5469 56.8125 40.2812 57.1875 40.2812 57.9375V64H38.625V55.7188H40.0938L40.2031 56.75H40.3281C40.3906 55.9531 40.8438 55.5625 41.75 55.5625C42.4453 55.5625 42.9297 55.9531 43.0859 56.75H43.2188C43.2656 56.1094 43.7344 55.5625 44.6094 55.5625C45.75 55.5625 46.25 56.1406 46.25 57.5156V64H44.5938ZM48.4375 67.5938V55.7188H49.9375L50.0703 57.2188H50.1719C50.3125 56.1797 51.1562 55.5625 52.4453 55.5625C54.6172 55.5625 55.75 57.0625 55.75 59.9375C55.75 62.7109 54.6172 64.1562 52.4453 64.1562C51.1719 64.1562 50.3516 63.5391 50.25 62.5H50.0938V67.5938H48.4375ZM50.0938 60.1406C50.0938 61.8516 50.7734 62.75 52.0781 62.75C53.4141 62.75 54.1094 61.7891 54.1094 59.9375C54.1094 57.9844 53.4141 56.9688 52.0781 56.9688C50.7734 56.9688 50.0938 57.8672 50.0938 59.5781V60.1406ZM62.4219 64.1562C60.5 64.1562 59.7031 63.1719 59.7031 60.875V53.7344H57.2656V52.2812H61.3594V60.7969C61.3594 62.1094 61.625 62.6719 63.0469 62.6719C63.5156 62.6719 64.0156 62.5781 64.7031 62.375L64.8906 63.8281C64.0469 64.0625 63.3125 64.1562 62.4219 64.1562ZM72.2656 64.0781L72.1875 62.25H72.0234C71.9062 63.5234 70.8828 64.1562 69.3438 64.1562C67.6172 64.1562 66.625 63.2891 66.625 61.7656C66.625 60.0156 67.9844 59.0469 70.375 59.0469C70.9688 59.0469 71.4844 59.0859 71.9375 59.1797V58.7969C71.9375 57.6953 71.1562 57.2031 69.625 57.1641L67.6406 57.1094L67.7969 55.6406L69.4688 55.6641C72.2031 55.7031 73.5156 56.8594 73.5156 59.0469V62.5L74.9219 62.6719V64L72.2656 64.0781ZM71.9375 60.4531C71.4062 60.375 70.8828 60.375 70.3438 60.375C68.9297 60.375 68.1875 60.8203 68.1875 61.6875C68.1875 62.4141 68.7031 62.8281 69.6094 62.8281C71.1562 62.8281 71.9375 61.9062 71.9375 61.0312V60.4531ZM81.4375 64.1562C78.9219 64.1562 77.875 63.1719 77.875 60.875V57.1719H75.7969V55.7188H77.875V53.2188H79.5312V55.7188H83.2969V57.1719H79.5312V60.7969C79.5312 62.1094 80.125 62.6719 81.5938 62.6719C82.1094 62.6719 82.6719 62.6094 83.4219 62.5156L83.6094 63.9688C82.875 64.0938 82.2188 64.1562 81.4375 64.1562ZM85.875 64V62.5469H89.0312V57.1719H86.3438V55.7188H90.6875V62.5469H93.2344V64H85.875ZM89.8047 54.4062C89.1641 54.4062 88.6484 53.8906 88.6484 53.25C88.6484 52.6094 89.1641 52.0938 89.8047 52.0938C90.4453 52.0938 90.9609 52.6094 90.9609 53.25C90.9609 53.8906 90.4453 54.4062 89.8047 54.4062ZM100.406 64V58.6094C100.406 57.6094 99.8594 57.0469 98.9219 57.0469C97.625 57.0469 96.9688 57.8047 96.9688 59.3438V64H95.3125V55.7188H96.8125L96.9453 57.2188H97.125C97.2188 56.1094 97.9219 55.5625 99.3125 55.5625C101.062 55.5625 102.062 56.6719 102.062 58.6094V64H100.406ZM104.797 67.7344L104.719 66.2188L107.375 66.1406C109.047 66.0938 109.766 65.2188 109.781 63.5156V62.5H109.625C109.523 63.5391 108.703 64.1562 107.43 64.1562C105.258 64.1562 104.125 62.7109 104.125 59.9375C104.125 57.0625 105.258 55.5625 107.43 55.5625C108.719 55.5625 109.562 56.1797 109.703 57.2188H109.805L109.938 55.7188H111.438V63.2656C111.438 66.2188 110.156 67.5625 107.219 67.6562L104.797 67.7344ZM109.781 59.5781C109.781 57.8672 109.102 56.9688 107.797 56.9688C106.461 56.9688 105.766 57.9844 105.766 59.9375C105.766 61.7891 106.461 62.75 107.797 62.75C109.102 62.75 109.781 61.8516 109.781 60.1406V59.5781ZM127.531 64.1562C124.703 64.1562 123.109 62.625 123.109 59.8438C123.109 57.1406 124.469 55.5625 126.844 55.5625C129.078 55.5625 130.359 56.9531 130.359 59.5312C130.359 59.9219 130.344 60.2656 130.312 60.5938H124.719C125.008 61.9766 126.055 62.7031 127.719 62.7031C128.406 62.7031 129.062 62.625 129.75 62.4844L129.953 63.9375C128.969 64.125 128.156 64.1562 127.531 64.1562ZM124.656 59.3281H128.859C128.859 57.8438 128.109 57.0156 126.859 57.0156C125.578 57.0156 124.789 57.8516 124.656 59.3281ZM137.906 64V58.6094C137.906 57.6094 137.359 57.0469 136.422 57.0469C135.125 57.0469 134.469 57.8047 134.469 59.3438V64H132.812V55.7188H134.312L134.445 57.2188H134.625C134.719 56.1094 135.422 55.5625 136.812 55.5625C138.562 55.5625 139.562 56.6719 139.562 58.6094V64H137.906ZM142.297 67.7344L142.219 66.2188L144.875 66.1406C146.547 66.0938 147.266 65.2188 147.281 63.5156V62.5H147.125C147.023 63.5391 146.203 64.1562 144.93 64.1562C142.758 64.1562 141.625 62.7109 141.625 59.9375C141.625 57.0625 142.758 55.5625 144.93 55.5625C146.219 55.5625 147.062 56.1797 147.203 57.2188H147.305L147.438 55.7188H148.938V63.2656C148.938 66.2188 147.656 67.5625 144.719 67.6562L142.297 67.7344ZM147.281 59.5781C147.281 57.8672 146.602 56.9688 145.297 56.9688C143.961 56.9688 143.266 57.9844 143.266 59.9375C143.266 61.7891 143.961 62.75 145.297 62.75C146.602 62.75 147.281 61.8516 147.281 60.1406V59.5781ZM151.5 64V62.5469H154.656V57.1719H151.969V55.7188H156.312V62.5469H158.859V64H151.5ZM155.43 54.4062C154.789 54.4062 154.273 53.8906 154.273 53.25C154.273 52.6094 154.789 52.0938 155.43 52.0938C156.07 52.0938 156.586 52.6094 156.586 53.25C156.586 53.8906 156.07 54.4062 155.43 54.4062ZM166.031 64V58.6094C166.031 57.6094 165.484 57.0469 164.547 57.0469C163.25 57.0469 162.594 57.8047 162.594 59.3438V64H160.938V55.7188H162.438L162.57 57.2188H162.75C162.844 56.1094 163.547 55.5625 164.938 55.5625C166.688 55.5625 167.688 56.6719 167.688 58.6094V64H166.031ZM170.422 67.7344L170.344 66.2188L173 66.1406C174.672 66.0938 175.391 65.2188 175.406 63.5156V62.5H175.25C175.148 63.5391 174.328 64.1562 173.055 64.1562C170.883 64.1562 169.75 62.7109 169.75 59.9375C169.75 57.0625 170.883 55.5625 173.055 55.5625C174.344 55.5625 175.188 56.1797 175.328 57.2188H175.43L175.562 55.7188H177.062V63.2656C177.062 66.2188 175.781 67.5625 172.844 67.6562L170.422 67.7344ZM175.406 59.5781C175.406 57.8672 174.727 56.9688 173.422 56.9688C172.086 56.9688 171.391 57.9844 171.391 59.9375C171.391 61.7891 172.086 62.75 173.422 62.75C174.727 62.75 175.406 61.8516 175.406 60.1406V59.5781ZM193.938 64.1562C191.422 64.1562 190.375 63.1719 190.375 60.875V57.1719H188.297V55.7188H190.375V53.2188H192.031V55.7188H195.797V57.1719H192.031V60.7969C192.031 62.1094 192.625 62.6719 194.094 62.6719C194.609 62.6719 195.172 62.6094 195.922 62.5156L196.109 63.9688C195.375 64.0938 194.719 64.1562 193.938 64.1562ZM201.812 64.1562C199.516 64.1562 198.188 62.5938 198.188 59.8594C198.188 57.125 199.516 55.5625 201.812 55.5625C204.109 55.5625 205.438 57.125 205.438 59.8594C205.438 62.5938 204.109 64.1562 201.812 64.1562ZM201.812 62.6719C203.031 62.6719 203.719 61.6562 203.719 59.8594C203.719 58.0625 203.031 57.0469 201.812 57.0469C200.594 57.0469 199.906 58.0625 199.906 59.8594C199.906 61.6562 200.594 62.6719 201.812 62.6719ZM221.359 64.1562C218.539 64.1562 216.938 62.625 216.938 59.8438C216.938 57.1406 218.445 55.5625 221.141 55.5625C222.75 55.5625 223.953 56.1875 224.445 57.2812L223.172 58.2422C222.703 57.4844 221.945 57.0469 221.078 57.0469C219.516 57.0469 218.609 58.0312 218.609 59.7656C218.609 61.6562 219.664 62.6719 221.547 62.6719C222.32 62.6719 223.094 62.5938 223.828 62.4688L224.016 63.9219C223.156 64.1094 222.227 64.1562 221.359 64.1562ZM229.375 60.4375V62.5469H231.406V64H225.875V62.5469H227.719V57.1719H226.188V55.7188H229.062L229.344 57.8438H229.531C229.625 56.3125 230.375 55.5625 231.812 55.5625C233.516 55.5625 234.25 56.4844 234.25 58.6719H232.609C232.609 57.4688 232.266 56.9688 231.469 56.9688C230.062 56.9688 229.375 58.2188 229.375 60.4375ZM240.031 64.1562C237.203 64.1562 235.609 62.625 235.609 59.8438C235.609 57.1406 236.969 55.5625 239.344 55.5625C241.578 55.5625 242.859 56.9531 242.859 59.5312C242.859 59.9219 242.844 60.2656 242.812 60.5938H237.219C237.508 61.9766 238.555 62.7031 240.219 62.7031C240.906 62.7031 241.562 62.625 242.25 62.4844L242.453 63.9375C241.469 64.125 240.656 64.1562 240.031 64.1562ZM237.156 59.3281H241.359C241.359 57.8438 240.609 57.0156 239.359 57.0156C238.078 57.0156 237.289 57.8516 237.156 59.3281ZM250.391 64.0781L250.312 62.25H250.148C250.031 63.5234 249.008 64.1562 247.469 64.1562C245.742 64.1562 244.75 63.2891 244.75 61.7656C244.75 60.0156 246.109 59.0469 248.5 59.0469C249.094 59.0469 249.609 59.0859 250.062 59.1797V58.7969C250.062 57.6953 249.281 57.2031 247.75 57.1641L245.766 57.1094L245.922 55.6406L247.594 55.6641C250.328 55.7031 251.641 56.8594 251.641 59.0469V62.5L253.047 62.6719V64L250.391 64.0781ZM250.062 60.4531C249.531 60.375 249.008 60.375 248.469 60.375C247.055 60.375 246.312 60.8203 246.312 61.6875C246.312 62.4141 246.828 62.8281 247.734 62.8281C249.281 62.8281 250.062 61.9062 250.062 61.0312V60.4531ZM259.562 64.1562C257.047 64.1562 256 63.1719 256 60.875V57.1719H253.922V55.7188H256V53.2188H257.656V55.7188H261.422V57.1719H257.656V60.7969C257.656 62.1094 258.25 62.6719 259.719 62.6719C260.234 62.6719 260.797 62.6094 261.547 62.5156L261.734 63.9688C261 64.0938 260.344 64.1562 259.562 64.1562ZM268.156 64.1562C265.328 64.1562 263.734 62.625 263.734 59.8438C263.734 57.1406 265.094 55.5625 267.469 55.5625C269.703 55.5625 270.984 56.9531 270.984 59.5312C270.984 59.9219 270.969 60.2656 270.938 60.5938H265.344C265.633 61.9766 266.68 62.7031 268.344 62.7031C269.031 62.7031 269.688 62.625 270.375 62.4844L270.578 63.9375C269.594 64.125 268.781 64.1562 268.156 64.1562ZM265.281 59.3281H269.484C269.484 57.8438 268.734 57.0156 267.484 57.0156C266.203 57.0156 265.414 57.8516 265.281 59.3281ZM23.125 79.4375V81.5469H25.1562V83H19.625V81.5469H21.4688V76.1719H19.9375V74.7188H22.8125L23.0938 76.8438H23.2812C23.375 75.3125 24.125 74.5625 25.5625 74.5625C27.2656 74.5625 28 75.4844 28 77.6719H26.3594C26.3594 76.4688 26.0156 75.9688 25.2188 75.9688C23.8125 75.9688 23.125 77.2188 23.125 79.4375ZM33.7812 83.1562C30.9531 83.1562 29.3594 81.625 29.3594 78.8438C29.3594 76.1406 30.7188 74.5625 33.0938 74.5625C35.3281 74.5625 36.6094 75.9531 36.6094 78.5312C36.6094 78.9219 36.5938 79.2656 36.5625 79.5938H30.9688C31.2578 80.9766 32.3047 81.7031 33.9688 81.7031C34.6562 81.7031 35.3125 81.625 36 81.4844L36.2031 82.9375C35.2188 83.125 34.4062 83.1562 33.7812 83.1562ZM30.9062 78.3281H35.1094C35.1094 76.8438 34.3594 76.0156 33.1094 76.0156C31.8281 76.0156 31.0391 76.8516 30.9062 78.3281ZM41.625 83.1562C39.8828 83.1562 38.8906 82.0781 38.8906 80.1875V74.7188H40.5469V80.1875C40.5469 81.1406 41.1172 81.6719 42.0938 81.6719C43.2969 81.6719 43.9219 80.9766 43.9219 79.1719V74.7188H45.5781V81.5L46.7188 81.6719V83L44.0625 83.0781L43.9453 81.4062H43.7969C43.5312 82.5312 42.7344 83.1562 41.625 83.1562ZM51.1719 83.1562C49.9219 83.1562 49.0781 83.0938 48.3438 82.9219L48.5312 81.4219C49.625 81.5938 50.4219 81.6719 51.1719 81.6719C52.8438 81.6719 53.5625 81.3594 53.5625 80.6406C53.5625 80.1406 53.2969 79.9375 52.75 79.7969L50.8438 79.3125C49.2109 78.8984 48.4688 78.3906 48.4688 77.1406C48.4688 75.3281 49.7812 74.5625 52.875 74.5625C53.6719 74.5625 54.3281 74.6094 55.0625 74.7188L54.8906 76.1562C54.0469 76.0781 53.4375 76.0469 52.8281 76.0469C50.9688 76.0469 50.1875 76.3438 50.1875 77.0625C50.1875 77.5469 50.5234 77.7031 51.2344 77.875L52.7656 78.25C54.5 78.6719 55.2812 79.2812 55.2812 80.6094C55.2812 82.3906 54.0469 83.1562 51.1719 83.1562ZM62.8906 83.0781L62.8125 81.25H62.6484C62.5312 82.5234 61.5078 83.1562 59.9688 83.1562C58.2422 83.1562 57.25 82.2891 57.25 80.7656C57.25 79.0156 58.6094 78.0469 61 78.0469C61.5938 78.0469 62.1094 78.0859 62.5625 78.1797V77.7969C62.5625 76.6953 61.7812 76.2031 60.25 76.1641L58.2656 76.1094L58.4219 74.6406L60.0938 74.6641C62.8281 74.7031 64.1406 75.8594 64.1406 78.0469V81.5L65.5469 81.6719V83L62.8906 83.0781ZM62.5625 79.4531C62.0312 79.375 61.5078 79.375 60.9688 79.375C59.5547 79.375 58.8125 79.8203 58.8125 80.6875C58.8125 81.4141 59.3281 81.8281 60.2344 81.8281C61.7812 81.8281 62.5625 80.9062 62.5625 80.0312V79.4531ZM69.3672 83.1562C68.6172 83.1562 67.8984 83.0938 67.1484 83V71.2812H68.8047V76.2188H68.9609C69.0391 75.1094 69.7109 74.5625 70.9922 74.5625C73.1953 74.5625 74.4609 75.9219 74.4609 78.3125C74.4609 81.3906 72.6094 83.1562 69.3672 83.1562ZM68.8047 78.3438V81.7266C69.1016 81.75 69.3984 81.75 69.6953 81.75C71.6875 81.75 72.8203 80.5 72.8203 78.3125C72.8203 76.8125 72.1328 75.9688 70.9141 75.9688C69.5078 75.9688 68.8047 76.75 68.8047 78.3438ZM81.1719 83.1562C79.25 83.1562 78.4531 82.1719 78.4531 79.875V72.7344H76.0156V71.2812H80.1094V79.7969C80.1094 81.1094 80.375 81.6719 81.7969 81.6719C82.2656 81.6719 82.7656 81.5781 83.4531 81.375L83.6406 82.8281C82.7969 83.0625 82.0625 83.1562 81.1719 83.1562ZM90.0312 83.1562C87.2031 83.1562 85.6094 81.625 85.6094 78.8438C85.6094 76.1406 86.9688 74.5625 89.3438 74.5625C91.5781 74.5625 92.8594 75.9531 92.8594 78.5312C92.8594 78.9219 92.8438 79.2656 92.8125 79.5938H87.2188C87.5078 80.9766 88.5547 81.7031 90.2188 81.7031C90.9062 81.7031 91.5625 81.625 92.25 81.4844L92.4531 82.9375C91.4688 83.125 90.6562 83.1562 90.0312 83.1562ZM87.1562 78.3281H91.3594C91.3594 76.8438 90.6094 76.0156 89.3594 76.0156C88.0781 76.0156 87.2891 76.8516 87.1562 78.3281ZM108.859 83.1562C106.039 83.1562 104.438 81.625 104.438 78.8438C104.438 76.1406 105.945 74.5625 108.641 74.5625C110.25 74.5625 111.453 75.1875 111.945 76.2812L110.672 77.2422C110.203 76.4844 109.445 76.0469 108.578 76.0469C107.016 76.0469 106.109 77.0312 106.109 78.7656C106.109 80.6562 107.164 81.6719 109.047 81.6719C109.82 81.6719 110.594 81.5938 111.328 81.4688L111.516 82.9219C110.656 83.1094 109.727 83.1562 108.859 83.1562ZM117.438 83.1562C115.141 83.1562 113.812 81.5938 113.812 78.8594C113.812 76.125 115.141 74.5625 117.438 74.5625C119.734 74.5625 121.062 76.125 121.062 78.8594C121.062 81.5938 119.734 83.1562 117.438 83.1562ZM117.438 81.6719C118.656 81.6719 119.344 80.6562 119.344 78.8594C119.344 77.0625 118.656 76.0469 117.438 76.0469C116.219 76.0469 115.531 77.0625 115.531 78.8594C115.531 80.6562 116.219 81.6719 117.438 81.6719ZM128.969 83V76.6719C128.969 76.0938 128.766 75.8125 128.328 75.8125C127.781 75.8125 127.516 76.1875 127.516 76.9375V83H126.109V76.5156C126.109 76.0469 125.891 75.8125 125.453 75.8125C124.922 75.8125 124.656 76.1875 124.656 76.9375V83H123V74.7188H124.469L124.578 75.75H124.703C124.766 74.9531 125.219 74.5625 126.125 74.5625C126.82 74.5625 127.305 74.9531 127.461 75.75H127.594C127.641 75.1094 128.109 74.5625 128.984 74.5625C130.125 74.5625 130.625 75.1406 130.625 76.5156V83H128.969ZM132.812 86.5938V74.7188H134.312L134.445 76.2188H134.547C134.688 75.1797 135.531 74.5625 136.82 74.5625C138.992 74.5625 140.125 76.0625 140.125 78.9375C140.125 81.7109 138.992 83.1562 136.82 83.1562C135.547 83.1562 134.727 82.5391 134.625 81.5H134.469V86.5938H132.812ZM134.469 79.1406C134.469 80.8516 135.148 81.75 136.453 81.75C137.789 81.75 138.484 80.7891 138.484 78.9375C138.484 76.9844 137.789 75.9688 136.453 75.9688C135.148 75.9688 134.469 76.8672 134.469 78.5781V79.1406ZM145.562 83.1562C143.266 83.1562 141.938 81.5938 141.938 78.8594C141.938 76.125 143.266 74.5625 145.562 74.5625C147.859 74.5625 149.188 76.125 149.188 78.8594C149.188 81.5938 147.859 83.1562 145.562 83.1562ZM145.562 81.6719C146.781 81.6719 147.469 80.6562 147.469 78.8594C147.469 77.0625 146.781 76.0469 145.562 76.0469C144.344 76.0469 143.656 77.0625 143.656 78.8594C143.656 80.6562 144.344 81.6719 145.562 81.6719ZM156.656 83V77.6094C156.656 76.6094 156.109 76.0469 155.172 76.0469C153.875 76.0469 153.219 76.8047 153.219 78.3438V83H151.562V74.7188H153.062L153.195 76.2188H153.375C153.469 75.1094 154.172 74.5625 155.562 74.5625C157.312 74.5625 158.312 75.6719 158.312 77.6094V83H156.656ZM165.031 83.1562C162.203 83.1562 160.609 81.625 160.609 78.8438C160.609 76.1406 161.969 74.5625 164.344 74.5625C166.578 74.5625 167.859 75.9531 167.859 78.5312C167.859 78.9219 167.844 79.2656 167.812 79.5938H162.219C162.508 80.9766 163.555 81.7031 165.219 81.7031C165.906 81.7031 166.562 81.625 167.25 81.4844L167.453 82.9375C166.469 83.125 165.656 83.1562 165.031 83.1562ZM162.156 78.3281H166.359C166.359 76.8438 165.609 76.0156 164.359 76.0156C163.078 76.0156 162.289 76.8516 162.156 78.3281ZM175.406 83V77.6094C175.406 76.6094 174.859 76.0469 173.922 76.0469C172.625 76.0469 171.969 76.8047 171.969 78.3438V83H170.312V74.7188H171.812L171.945 76.2188H172.125C172.219 75.1094 172.922 74.5625 174.312 74.5625C176.062 74.5625 177.062 75.6719 177.062 77.6094V83H175.406ZM184.562 83.1562C182.047 83.1562 181 82.1719 181 79.875V76.1719H178.922V74.7188H181V72.2188H182.656V74.7188H186.422V76.1719H182.656V79.7969C182.656 81.1094 183.25 81.6719 184.719 81.6719C185.234 81.6719 185.797 81.6094 186.547 81.5156L186.734 82.9688C186 83.0938 185.344 83.1562 184.562 83.1562ZM191.797 83.1562C190.547 83.1562 189.703 83.0938 188.969 82.9219L189.156 81.4219C190.25 81.5938 191.047 81.6719 191.797 81.6719C193.469 81.6719 194.188 81.3594 194.188 80.6406C194.188 80.1406 193.922 79.9375 193.375 79.7969L191.469 79.3125C189.836 78.8984 189.094 78.3906 189.094 77.1406C189.094 75.3281 190.406 74.5625 193.5 74.5625C194.297 74.5625 194.953 74.6094 195.688 74.7188L195.516 76.1562C194.672 76.0781 194.062 76.0469 193.453 76.0469C191.594 76.0469 190.812 76.3438 190.812 77.0625C190.812 77.5469 191.148 77.7031 191.859 77.875L193.391 78.25C195.125 78.6719 195.906 79.2812 195.906 80.6094C195.906 82.3906 194.672 83.1562 191.797 83.1562ZM209.641 83V78H207.031V76.5469H209.641V75.4219C209.641 72.5469 210.938 71.125 213.562 71.125C214.188 71.125 214.703 71.1719 215.281 71.2812L215.109 72.7188C214.453 72.6406 213.984 72.6094 213.516 72.6094C212.031 72.6094 211.297 73.5156 211.297 75.3438V76.5469H214.688V78H211.297V83H209.641ZM220.562 83.1562C218.266 83.1562 216.938 81.5938 216.938 78.8594C216.938 76.125 218.266 74.5625 220.562 74.5625C222.859 74.5625 224.188 76.125 224.188 78.8594C224.188 81.5938 222.859 83.1562 220.562 83.1562ZM220.562 81.6719C221.781 81.6719 222.469 80.6562 222.469 78.8594C222.469 77.0625 221.781 76.0469 220.562 76.0469C219.344 76.0469 218.656 77.0625 218.656 78.8594C218.656 80.6562 219.344 81.6719 220.562 81.6719ZM229.375 79.4375V81.5469H231.406V83H225.875V81.5469H227.719V76.1719H226.188V74.7188H229.062L229.344 76.8438H229.531C229.625 75.3125 230.375 74.5625 231.812 74.5625C233.516 74.5625 234.25 75.4844 234.25 77.6719H232.609C232.609 76.4688 232.266 75.9688 231.469 75.9688C230.062 75.9688 229.375 77.2188 229.375 79.4375ZM250.188 83.1562C247.672 83.1562 246.625 82.1719 246.625 79.875V76.1719H244.547V74.7188H246.625V72.2188H248.281V74.7188H252.047V76.1719H248.281V79.7969C248.281 81.1094 248.875 81.6719 250.344 81.6719C250.859 81.6719 251.422 81.6094 252.172 81.5156L252.359 82.9688C251.625 83.0938 250.969 83.1562 250.188 83.1562ZM259.781 83V77.6094C259.781 76.5625 259.234 75.9688 258.297 75.9688C257 75.9688 256.344 76.75 256.344 78.3438V83H254.688V71.2812H256.344V76.2188H256.5C256.594 75.1094 257.297 74.5625 258.688 74.5625C260.438 74.5625 261.438 75.6719 261.438 77.6094V83H259.781ZM268.156 83.1562C265.328 83.1562 263.734 81.625 263.734 78.8438C263.734 76.1406 265.094 74.5625 267.469 74.5625C269.703 74.5625 270.984 75.9531 270.984 78.5312C270.984 78.9219 270.969 79.2656 270.938 79.5938H265.344C265.633 80.9766 266.68 81.7031 268.344 81.7031C269.031 81.7031 269.688 81.625 270.375 81.4844L270.578 82.9375C269.594 83.125 268.781 83.1562 268.156 83.1562ZM265.281 78.3281H269.484C269.484 76.8438 268.734 76.0156 267.484 76.0156C266.203 76.0156 265.414 76.8516 265.281 78.3281ZM24.625 102L23.6562 95.4219H23.5625L22.5938 102H20.4844L19.5469 93.7188H21.1094L21.7344 100.75H21.875L22.8516 93.7188H24.3672L25.3438 100.75H25.4844L26.1875 93.7188H27.8281L26.6562 102H24.625ZM33.7812 102.156C30.9531 102.156 29.3594 100.625 29.3594 97.8438C29.3594 95.1406 30.7188 93.5625 33.0938 93.5625C35.3281 93.5625 36.6094 94.9531 36.6094 97.5312C36.6094 97.9219 36.5938 98.2656 36.5625 98.5938H30.9688C31.2578 99.9766 32.3047 100.703 33.9688 100.703C34.6562 100.703 35.3125 100.625 36 100.484L36.2031 101.938C35.2188 102.125 34.4062 102.156 33.7812 102.156ZM30.9062 97.3281H35.1094C35.1094 95.8438 34.3594 95.0156 33.1094 95.0156C31.8281 95.0156 31.0391 95.8516 30.9062 97.3281ZM41.2422 102.156C40.4922 102.156 39.7734 102.094 39.0234 102V90.2812H40.6797V95.2188H40.8359C40.9141 94.1094 41.5859 93.5625 42.8672 93.5625C45.0703 93.5625 46.3359 94.9219 46.3359 97.3125C46.3359 100.391 44.4844 102.156 41.2422 102.156ZM40.6797 97.3438V100.727C40.9766 100.75 41.2734 100.75 41.5703 100.75C43.5625 100.75 44.6953 99.5 44.6953 97.3125C44.6953 95.8125 44.0078 94.9688 42.7891 94.9688C41.3828 94.9688 40.6797 95.75 40.6797 97.3438ZM51.1719 102.156C49.9219 102.156 49.0781 102.094 48.3438 101.922L48.5312 100.422C49.625 100.594 50.4219 100.672 51.1719 100.672C52.8438 100.672 53.5625 100.359 53.5625 99.6406C53.5625 99.1406 53.2969 98.9375 52.75 98.7969L50.8438 98.3125C49.2109 97.8984 48.4688 97.3906 48.4688 96.1406C48.4688 94.3281 49.7812 93.5625 52.875 93.5625C53.6719 93.5625 54.3281 93.6094 55.0625 93.7188L54.8906 95.1562C54.0469 95.0781 53.4375 95.0469 52.8281 95.0469C50.9688 95.0469 50.1875 95.3438 50.1875 96.0625C50.1875 96.5469 50.5234 96.7031 51.2344 96.875L52.7656 97.25C54.5 97.6719 55.2812 98.2812 55.2812 99.6094C55.2812 101.391 54.0469 102.156 51.1719 102.156ZM57.75 102V100.547H60.9062V95.1719H58.2188V93.7188H62.5625V100.547H65.1094V102H57.75ZM61.6797 92.4062C61.0391 92.4062 60.5234 91.8906 60.5234 91.25C60.5234 90.6094 61.0391 90.0938 61.6797 90.0938C62.3203 90.0938 62.8359 90.6094 62.8359 91.25C62.8359 91.8906 62.3203 92.4062 61.6797 92.4062ZM72.0625 102.156C69.5469 102.156 68.5 101.172 68.5 98.875V95.1719H66.4219V93.7188H68.5V91.2188H70.1562V93.7188H73.9219V95.1719H70.1562V98.7969C70.1562 100.109 70.75 100.672 72.2188 100.672C72.7344 100.672 73.2969 100.609 74.0469 100.516L74.2344 101.969C73.5 102.094 72.8438 102.156 72.0625 102.156ZM80.6562 102.156C77.8281 102.156 76.2344 100.625 76.2344 97.8438C76.2344 95.1406 77.5938 93.5625 79.9688 93.5625C82.2031 93.5625 83.4844 94.9531 83.4844 97.5312C83.4844 97.9219 83.4688 98.2656 83.4375 98.5938H77.8438C78.1328 99.9766 79.1797 100.703 80.8438 100.703C81.5312 100.703 82.1875 100.625 82.875 100.484L83.0781 101.938C82.0938 102.125 81.2812 102.156 80.6562 102.156ZM77.7812 97.3281H81.9844C81.9844 95.8438 81.2344 95.0156 79.9844 95.0156C78.7031 95.0156 77.9141 95.8516 77.7812 97.3281ZM89.3125 102.156C88.6719 102.156 88.1562 101.641 88.1562 101C88.1562 100.359 88.6719 99.8438 89.3125 99.8438C89.9531 99.8438 90.4688 100.359 90.4688 101C90.4688 101.641 89.9531 102.156 89.3125 102.156Z" fill="black"/>
<rect x="385" y="1" width="254" height="122" rx="11" stroke="black" stroke-width="2"/>
<path d="M507.484 33.1562C504.086 33.1562 502.383 31.25 502.383 27.4375C502.383 23.8281 504.227 21.75 507.422 21.75C509.039 21.75 510.227 22.2812 510.883 23.2031L509.586 24.6953C509.102 24.0781 508.344 23.7109 507.516 23.7109C505.641 23.7109 504.555 25.0391 504.555 27.3594C504.555 29.9141 505.602 31.1875 507.672 31.1875C508.008 31.1875 508.32 31.1562 508.602 31.1172V29.1562H506.766V27.2578H510.648V32.6875C510.188 32.8281 508.953 33.1562 507.484 33.1562ZM516.062 33.1562C513.68 33.1562 512.305 31.5938 512.305 28.8594C512.305 26.125 513.68 24.5625 516.062 24.5625C518.445 24.5625 519.82 26.125 519.82 28.8594C519.82 31.5938 518.445 33.1562 516.062 33.1562ZM516.062 31.1484C517.078 31.1484 517.656 30.3203 517.656 28.8594C517.656 27.3906 517.078 26.5703 516.062 26.5703C515.055 26.5703 514.469 27.3906 514.469 28.8594C514.469 30.3203 515.055 31.1484 516.062 31.1484Z" fill="black"/>
<path d="M410.656 64V59.2188H406.719V64H405.094V52.9062H406.719V57.7344H410.656V52.9062H412.281V64H410.656ZM419.766 64.0781L419.688 62.25H419.523C419.406 63.5234 418.383 64.1562 416.844 64.1562C415.117 64.1562 414.125 63.2891 414.125 61.7656C414.125 60.0156 415.484 59.0469 417.875 59.0469C418.469 59.0469 418.984 59.0859 419.438 59.1797V58.7969C419.438 57.6953 418.656 57.2031 417.125 57.1641L415.141 57.1094L415.297 55.6406L416.969 55.6641C419.703 55.7031 421.016 56.8594 421.016 59.0469V62.5L422.422 62.6719V64L419.766 64.0781ZM419.438 60.4531C418.906 60.375 418.383 60.375 417.844 60.375C416.43 60.375 415.688 60.8203 415.688 61.6875C415.688 62.4141 416.203 62.8281 417.109 62.8281C418.656 62.8281 419.438 61.9062 419.438 61.0312V60.4531ZM429.156 64V58.6094C429.156 57.6094 428.609 57.0469 427.672 57.0469C426.375 57.0469 425.719 57.8047 425.719 59.3438V64H424.062V55.7188H425.562L425.695 57.2188H425.875C425.969 56.1094 426.672 55.5625 428.062 55.5625C429.812 55.5625 430.812 56.6719 430.812 58.6094V64H429.156ZM436.18 64.1562C434.008 64.1562 432.875 62.7109 432.875 59.9375C432.875 57.0625 434.008 55.5625 436.18 55.5625C437.422 55.5625 438.242 56.1797 438.375 57.2188H438.531V52.2812H440.188V64L438.703 64.0781L438.539 62.5H438.375C438.273 63.5391 437.453 64.1562 436.18 64.1562ZM438.531 60.1406V59.5781C438.531 57.8672 437.852 56.9688 436.547 56.9688C435.211 56.9688 434.516 57.9844 434.516 59.9375C434.516 61.7891 435.211 62.75 436.547 62.75C437.852 62.75 438.531 61.8516 438.531 60.1406ZM447.422 64.1562C445.5 64.1562 444.703 63.1719 444.703 60.875V53.7344H442.266V52.2812H446.359V60.7969C446.359 62.1094 446.625 62.6719 448.047 62.6719C448.516 62.6719 449.016 62.5781 449.703 62.375L449.891 63.8281C449.047 64.0625 448.312 64.1562 447.422 64.1562ZM456.281 64.1562C453.453 64.1562 451.859 62.625 451.859 59.8438C451.859 57.1406 453.219 55.5625 455.594 55.5625C457.828 55.5625 459.109 56.9531 459.109 59.5312C459.109 59.9219 459.094 60.2656 459.062 60.5938H453.469C453.758 61.9766 454.805 62.7031 456.469 62.7031C457.156 62.7031 457.812 62.625 458.5 62.4844L458.703 63.9375C457.719 64.125 456.906 64.1562 456.281 64.1562ZM453.406 59.3281H457.609C457.609 57.8438 456.859 57.0156 455.609 57.0156C454.328 57.0156 453.539 57.8516 453.406 59.3281ZM464.297 64.1562C463.047 64.1562 462.203 64.0938 461.469 63.9219L461.656 62.4219C462.75 62.5938 463.547 62.6719 464.297 62.6719C465.969 62.6719 466.688 62.3594 466.688 61.6406C466.688 61.1406 466.422 60.9375 465.875 60.7969L463.969 60.3125C462.336 59.8984 461.594 59.3906 461.594 58.1406C461.594 56.3281 462.906 55.5625 466 55.5625C466.797 55.5625 467.453 55.6094 468.188 55.7188L468.016 57.1562C467.172 57.0781 466.562 57.0469 465.953 57.0469C464.094 57.0469 463.312 57.3438 463.312 58.0625C463.312 58.5469 463.648 58.7031 464.359 58.875L465.891 59.25C467.625 59.6719 468.406 60.2812 468.406 61.6094C468.406 63.3906 467.172 64.1562 464.297 64.1562ZM485.188 64.1562C482.672 64.1562 481.625 63.1719 481.625 60.875V57.1719H479.547V55.7188H481.625V53.2188H483.281V55.7188H487.047V57.1719H483.281V60.7969C483.281 62.1094 483.875 62.6719 485.344 62.6719C485.859 62.6719 486.422 62.6094 487.172 62.5156L487.359 63.9688C486.625 64.0938 485.969 64.1562 485.188 64.1562ZM494.781 64V58.6094C494.781 57.5625 494.234 56.9688 493.297 56.9688C492 56.9688 491.344 57.75 491.344 59.3438V64H489.688V52.2812H491.344V57.2188H491.5C491.594 56.1094 492.297 55.5625 493.688 55.5625C495.438 55.5625 496.438 56.6719 496.438 58.6094V64H494.781ZM503.156 64.1562C500.328 64.1562 498.734 62.625 498.734 59.8438C498.734 57.1406 500.094 55.5625 502.469 55.5625C504.703 55.5625 505.984 56.9531 505.984 59.5312C505.984 59.9219 505.969 60.2656 505.938 60.5938H500.344C500.633 61.9766 501.68 62.7031 503.344 62.7031C504.031 62.7031 504.688 62.625 505.375 62.4844L505.578 63.9375C504.594 64.125 503.781 64.1562 503.156 64.1562ZM500.281 59.3281H504.484C504.484 57.8438 503.734 57.0156 502.484 57.0156C501.203 57.0156 500.414 57.8516 500.281 59.3281ZM520.547 64.1562C519.297 64.1562 518.453 64.0938 517.719 63.9219L517.906 62.4219C519 62.5938 519.797 62.6719 520.547 62.6719C522.219 62.6719 522.938 62.3594 522.938 61.6406C522.938 61.1406 522.672 60.9375 522.125 60.7969L520.219 60.3125C518.586 59.8984 517.844 59.3906 517.844 58.1406C517.844 56.3281 519.156 55.5625 522.25 55.5625C523.047 55.5625 523.703 55.6094 524.438 55.7188L524.266 57.1562C523.422 57.0781 522.812 57.0469 522.203 57.0469C520.344 57.0469 519.562 57.3438 519.562 58.0625C519.562 58.5469 519.898 58.7031 520.609 58.875L522.141 59.25C523.875 59.6719 524.656 60.2812 524.656 61.6094C524.656 63.3906 523.422 64.1562 520.547 64.1562ZM532.062 64.1562C529.547 64.1562 528.5 63.1719 528.5 60.875V57.1719H526.422V55.7188H528.5V53.2188H530.156V55.7188H533.922V57.1719H530.156V60.7969C530.156 62.1094 530.75 62.6719 532.219 62.6719C532.734 62.6719 533.297 62.6094 534.047 62.5156L534.234 63.9688C533.5 64.0938 532.844 64.1562 532.062 64.1562ZM541.641 64.0781L541.562 62.25H541.398C541.281 63.5234 540.258 64.1562 538.719 64.1562C536.992 64.1562 536 63.2891 536 61.7656C536 60.0156 537.359 59.0469 539.75 59.0469C540.344 59.0469 540.859 59.0859 541.312 59.1797V58.7969C541.312 57.6953 540.531 57.2031 539 57.1641L537.016 57.1094L537.172 55.6406L538.844 55.6641C541.578 55.7031 542.891 56.8594 542.891 59.0469V62.5L544.297 62.6719V64L541.641 64.0781ZM541.312 60.4531C540.781 60.375 540.258 60.375 539.719 60.375C538.305 60.375 537.562 60.8203 537.562 61.6875C537.562 62.4141 538.078 62.8281 538.984 62.8281C540.531 62.8281 541.312 61.9062 541.312 61.0312V60.4531ZM550.812 64.1562C548.297 64.1562 547.25 63.1719 547.25 60.875V57.1719H545.172V55.7188H547.25V53.2188H548.906V55.7188H552.672V57.1719H548.906V60.7969C548.906 62.1094 549.5 62.6719 550.969 62.6719C551.484 62.6719 552.047 62.6094 552.797 62.5156L552.984 63.9688C552.25 64.0938 551.594 64.1562 550.812 64.1562ZM555.25 64V62.5469H558.406V57.1719H555.719V55.7188H560.062V62.5469H562.609V64H555.25ZM559.18 54.4062C558.539 54.4062 558.023 53.8906 558.023 53.25C558.023 52.6094 558.539 52.0938 559.18 52.0938C559.82 52.0938 560.336 52.6094 560.336 53.25C560.336 53.8906 559.82 54.4062 559.18 54.4062ZM568.859 64.1562C566.039 64.1562 564.438 62.625 564.438 59.8438C564.438 57.1406 565.945 55.5625 568.641 55.5625C570.25 55.5625 571.453 56.1875 571.945 57.2812L570.672 58.2422C570.203 57.4844 569.445 57.0469 568.578 57.0469C567.016 57.0469 566.109 58.0312 566.109 59.7656C566.109 61.6562 567.164 62.6719 569.047 62.6719C569.82 62.6719 570.594 62.5938 571.328 62.4688L571.516 63.9219C570.656 64.1094 569.727 64.1562 568.859 64.1562ZM588.531 64V58.6094C588.531 57.5625 587.984 56.9688 587.047 56.9688C585.75 56.9688 585.094 57.75 585.094 59.3438V64H583.438V52.2812H585.094V57.2188H585.25C585.344 56.1094 586.047 55.5625 587.438 55.5625C589.188 55.5625 590.188 56.6719 590.188 58.6094V64H588.531ZM597.688 64.1562C595.172 64.1562 594.125 63.1719 594.125 60.875V57.1719H592.047V55.7188H594.125V53.2188H595.781V55.7188H599.547V57.1719H595.781V60.7969C595.781 62.1094 596.375 62.6719 597.844 62.6719C598.359 62.6719 598.922 62.6094 599.672 62.5156L599.859 63.9688C599.125 64.0938 598.469 64.1562 597.688 64.1562ZM607.719 64V57.6719C607.719 57.0938 607.516 56.8125 607.078 56.8125C606.531 56.8125 606.266 57.1875 606.266 57.9375V64H604.859V57.5156C604.859 57.0469 604.641 56.8125 604.203 56.8125C603.672 56.8125 603.406 57.1875 603.406 57.9375V64H601.75V55.7188H603.219L603.328 56.75H603.453C603.516 55.9531 603.969 55.5625 604.875 55.5625C605.57 55.5625 606.055 55.9531 606.211 56.75H606.344C606.391 56.1094 606.859 55.5625 607.734 55.5625C608.875 55.5625 609.375 56.1406 609.375 57.5156V64H607.719ZM616.172 64.1562C614.25 64.1562 613.453 63.1719 613.453 60.875V53.7344H611.016V52.2812H615.109V60.7969C615.109 62.1094 615.375 62.6719 616.797 62.6719C617.266 62.6719 617.766 62.5781 618.453 62.375L618.641 63.8281C617.797 64.0625 617.062 64.1562 616.172 64.1562ZM405.422 86.7344L405.344 85.2188L408 85.1406C409.672 85.0938 410.391 84.2188 410.406 82.5156V81.5H410.25C410.148 82.5391 409.328 83.1562 408.055 83.1562C405.883 83.1562 404.75 81.7109 404.75 78.9375C404.75 76.0625 405.883 74.5625 408.055 74.5625C409.344 74.5625 410.188 75.1797 410.328 76.2188H410.43L410.562 74.7188H412.062V82.2656C412.062 85.2188 410.781 86.5625 407.844 86.6562L405.422 86.7344ZM410.406 78.5781C410.406 76.8672 409.727 75.9688 408.422 75.9688C407.086 75.9688 406.391 76.9844 406.391 78.9375C406.391 80.7891 407.086 81.75 408.422 81.75C409.727 81.75 410.406 80.8516 410.406 79.1406V78.5781ZM418.781 83.1562C415.953 83.1562 414.359 81.625 414.359 78.8438C414.359 76.1406 415.719 74.5625 418.094 74.5625C420.328 74.5625 421.609 75.9531 421.609 78.5312C421.609 78.9219 421.594 79.2656 421.562 79.5938H415.969C416.258 80.9766 417.305 81.7031 418.969 81.7031C419.656 81.7031 420.312 81.625 421 81.4844L421.203 82.9375C420.219 83.125 419.406 83.1562 418.781 83.1562ZM415.906 78.3281H420.109C420.109 76.8438 419.359 76.0156 418.109 76.0156C416.828 76.0156 416.039 76.8516 415.906 78.3281ZM429.156 83V77.6094C429.156 76.6094 428.609 76.0469 427.672 76.0469C426.375 76.0469 425.719 76.8047 425.719 78.3438V83H424.062V74.7188H425.562L425.695 76.2188H425.875C425.969 75.1094 426.672 74.5625 428.062 74.5625C429.812 74.5625 430.812 75.6719 430.812 77.6094V83H429.156ZM437.531 83.1562C434.703 83.1562 433.109 81.625 433.109 78.8438C433.109 76.1406 434.469 74.5625 436.844 74.5625C439.078 74.5625 440.359 75.9531 440.359 78.5312C440.359 78.9219 440.344 79.2656 440.312 79.5938H434.719C435.008 80.9766 436.055 81.7031 437.719 81.7031C438.406 81.7031 439.062 81.625 439.75 81.4844L439.953 82.9375C438.969 83.125 438.156 83.1562 437.531 83.1562ZM434.656 78.3281H438.859C438.859 76.8438 438.109 76.0156 436.859 76.0156C435.578 76.0156 434.789 76.8516 434.656 78.3281ZM445.625 79.4375V81.5469H447.656V83H442.125V81.5469H443.969V76.1719H442.438V74.7188H445.312L445.594 76.8438H445.781C445.875 75.3125 446.625 74.5625 448.062 74.5625C449.766 74.5625 450.5 75.4844 450.5 77.6719H448.859C448.859 76.4688 448.516 75.9688 447.719 75.9688C446.312 75.9688 445.625 77.2188 445.625 79.4375ZM457.266 83.0781L457.188 81.25H457.023C456.906 82.5234 455.883 83.1562 454.344 83.1562C452.617 83.1562 451.625 82.2891 451.625 80.7656C451.625 79.0156 452.984 78.0469 455.375 78.0469C455.969 78.0469 456.484 78.0859 456.938 78.1797V77.7969C456.938 76.6953 456.156 76.2031 454.625 76.1641L452.641 76.1094L452.797 74.6406L454.469 74.6641C457.203 74.7031 458.516 75.8594 458.516 78.0469V81.5L459.922 81.6719V83L457.266 83.0781ZM456.938 79.4531C456.406 79.375 455.883 79.375 455.344 79.375C453.93 79.375 453.188 79.8203 453.188 80.6875C453.188 81.4141 453.703 81.8281 454.609 81.8281C456.156 81.8281 456.938 80.9062 456.938 80.0312V79.4531ZM466.438 83.1562C463.922 83.1562 462.875 82.1719 462.875 79.875V76.1719H460.797V74.7188H462.875V72.2188H464.531V74.7188H468.297V76.1719H464.531V79.7969C464.531 81.1094 465.125 81.6719 466.594 81.6719C467.109 81.6719 467.672 81.6094 468.422 81.5156L468.609 82.9688C467.875 83.0938 467.219 83.1562 466.438 83.1562ZM470.875 83V81.5469H474.031V76.1719H471.344V74.7188H475.688V81.5469H478.234V83H470.875ZM474.805 73.4062C474.164 73.4062 473.648 72.8906 473.648 72.25C473.648 71.6094 474.164 71.0938 474.805 71.0938C475.445 71.0938 475.961 71.6094 475.961 72.25C475.961 72.8906 475.445 73.4062 474.805 73.4062ZM483.688 83.1562C481.391 83.1562 480.062 81.5938 480.062 78.8594C480.062 76.125 481.391 74.5625 483.688 74.5625C485.984 74.5625 487.312 76.125 487.312 78.8594C487.312 81.5938 485.984 83.1562 483.688 83.1562ZM483.688 81.6719C484.906 81.6719 485.594 80.6562 485.594 78.8594C485.594 77.0625 484.906 76.0469 483.688 76.0469C482.469 76.0469 481.781 77.0625 481.781 78.8594C481.781 80.6562 482.469 81.6719 483.688 81.6719ZM494.781 83V77.6094C494.781 76.6094 494.234 76.0469 493.297 76.0469C492 76.0469 491.344 76.8047 491.344 78.3438V83H489.688V74.7188H491.188L491.32 76.2188H491.5C491.594 75.1094 492.297 74.5625 493.688 74.5625C495.438 74.5625 496.438 75.6719 496.438 77.6094V83H494.781ZM510.266 83V78H507.656V76.5469H510.266V75.4219C510.266 72.5469 511.562 71.125 514.188 71.125C514.812 71.125 515.328 71.1719 515.906 71.2812L515.734 72.7188C515.078 72.6406 514.609 72.6094 514.141 72.6094C512.656 72.6094 511.922 73.5156 511.922 75.3438V76.5469H515.312V78H511.922V83H510.266ZM521.188 83.1562C518.891 83.1562 517.562 81.5938 517.562 78.8594C517.562 76.125 518.891 74.5625 521.188 74.5625C523.484 74.5625 524.812 76.125 524.812 78.8594C524.812 81.5938 523.484 83.1562 521.188 83.1562ZM521.188 81.6719C522.406 81.6719 523.094 80.6562 523.094 78.8594C523.094 77.0625 522.406 76.0469 521.188 76.0469C519.969 76.0469 519.281 77.0625 519.281 78.8594C519.281 80.6562 519.969 81.6719 521.188 81.6719ZM530 79.4375V81.5469H532.031V83H526.5V81.5469H528.344V76.1719H526.812V74.7188H529.688L529.969 76.8438H530.156C530.25 75.3125 531 74.5625 532.438 74.5625C534.141 74.5625 534.875 75.4844 534.875 77.6719H533.234C533.234 76.4688 532.891 75.9688 532.094 75.9688C530.688 75.9688 530 77.2188 530 79.4375ZM550.812 83.1562C548.297 83.1562 547.25 82.1719 547.25 79.875V76.1719H545.172V74.7188H547.25V72.2188H548.906V74.7188H552.672V76.1719H548.906V79.7969C548.906 81.1094 549.5 81.6719 550.969 81.6719C551.484 81.6719 552.047 81.6094 552.797 81.5156L552.984 82.9688C552.25 83.0938 551.594 83.1562 550.812 83.1562ZM560.406 83V77.6094C560.406 76.5625 559.859 75.9688 558.922 75.9688C557.625 75.9688 556.969 76.75 556.969 78.3438V83H555.312V71.2812H556.969V76.2188H557.125C557.219 75.1094 557.922 74.5625 559.312 74.5625C561.062 74.5625 562.062 75.6719 562.062 77.6094V83H560.406ZM568.781 83.1562C565.953 83.1562 564.359 81.625 564.359 78.8438C564.359 76.1406 565.719 74.5625 568.094 74.5625C570.328 74.5625 571.609 75.9531 571.609 78.5312C571.609 78.9219 571.594 79.2656 571.562 79.5938H565.969C566.258 80.9766 567.305 81.7031 568.969 81.7031C569.656 81.7031 570.312 81.625 571 81.4844L571.203 82.9375C570.219 83.125 569.406 83.1562 568.781 83.1562ZM565.906 78.3281H570.109C570.109 76.8438 569.359 76.0156 568.109 76.0156C566.828 76.0156 566.039 76.8516 565.906 78.3281ZM588.969 83V76.6719C588.969 76.0938 588.766 75.8125 588.328 75.8125C587.781 75.8125 587.516 76.1875 587.516 76.9375V83H586.109V76.5156C586.109 76.0469 585.891 75.8125 585.453 75.8125C584.922 75.8125 584.656 76.1875 584.656 76.9375V83H583V74.7188H584.469L584.578 75.75H584.703C584.766 74.9531 585.219 74.5625 586.125 74.5625C586.82 74.5625 587.305 74.9531 587.461 75.75H587.594C587.641 75.1094 588.109 74.5625 588.984 74.5625C590.125 74.5625 590.625 75.1406 590.625 76.5156V83H588.969ZM597.891 83.0781L597.812 81.25H597.648C597.531 82.5234 596.508 83.1562 594.969 83.1562C593.242 83.1562 592.25 82.2891 592.25 80.7656C592.25 79.0156 593.609 78.0469 596 78.0469C596.594 78.0469 597.109 78.0859 597.562 78.1797V77.7969C597.562 76.6953 596.781 76.2031 595.25 76.1641L593.266 76.1094L593.422 74.6406L595.094 74.6641C597.828 74.7031 599.141 75.8594 599.141 78.0469V81.5L600.547 81.6719V83L597.891 83.0781ZM597.562 79.4531C597.031 79.375 596.508 79.375 595.969 79.375C594.555 79.375 593.812 79.8203 593.812 80.6875C593.812 81.4141 594.328 81.8281 595.234 81.8281C596.781 81.8281 597.562 80.9062 597.562 80.0312V79.4531ZM602.125 83V81.5469H605.281V76.1719H602.594V74.7188H606.938V81.5469H609.484V83H602.125ZM606.055 73.4062C605.414 73.4062 604.898 72.8906 604.898 72.25C604.898 71.6094 605.414 71.0938 606.055 71.0938C606.695 71.0938 607.211 71.6094 607.211 72.25C607.211 72.8906 606.695 73.4062 606.055 73.4062ZM616.656 83V77.6094C616.656 76.6094 616.109 76.0469 615.172 76.0469C613.875 76.0469 613.219 76.8047 613.219 78.3438V83H611.562V74.7188H613.062L613.195 76.2188H613.375C613.469 75.1094 614.172 74.5625 615.562 74.5625C617.312 74.5625 618.312 75.6719 618.312 77.6094V83H616.656ZM407.492 102.156C406.742 102.156 406.023 102.094 405.273 102V90.2812H406.93V95.2188H407.086C407.164 94.1094 407.836 93.5625 409.117 93.5625C411.32 93.5625 412.586 94.9219 412.586 97.3125C412.586 100.391 410.734 102.156 407.492 102.156ZM406.93 97.3438V100.727C407.227 100.75 407.523 100.75 407.82 100.75C409.812 100.75 410.945 99.5 410.945 97.3125C410.945 95.8125 410.258 94.9688 409.039 94.9688C407.633 94.9688 406.93 95.75 406.93 97.3438ZM417.5 98.4375V100.547H419.531V102H414V100.547H415.844V95.1719H414.312V93.7188H417.188L417.469 95.8438H417.656C417.75 94.3125 418.5 93.5625 419.938 93.5625C421.641 93.5625 422.375 94.4844 422.375 96.6719H420.734C420.734 95.4688 420.391 94.9688 419.594 94.9688C418.188 94.9688 417.5 96.2188 417.5 98.4375ZM429.141 102.078L429.062 100.25H428.898C428.781 101.523 427.758 102.156 426.219 102.156C424.492 102.156 423.5 101.289 423.5 99.7656C423.5 98.0156 424.859 97.0469 427.25 97.0469C427.844 97.0469 428.359 97.0859 428.812 97.1797V96.7969C428.812 95.6953 428.031 95.2031 426.5 95.1641L424.516 95.1094L424.672 93.6406L426.344 93.6641C429.078 93.7031 430.391 94.8594 430.391 97.0469V100.5L431.797 100.672V102L429.141 102.078ZM428.812 98.4531C428.281 98.375 427.758 98.375 427.219 98.375C425.805 98.375 425.062 98.8203 425.062 99.6875C425.062 100.414 425.578 100.828 426.484 100.828C428.031 100.828 428.812 99.9062 428.812 99.0312V98.4531ZM438.531 102V96.6094C438.531 95.6094 437.984 95.0469 437.047 95.0469C435.75 95.0469 435.094 95.8047 435.094 97.3438V102H433.438V93.7188H434.938L435.07 95.2188H435.25C435.344 94.1094 436.047 93.5625 437.438 93.5625C439.188 93.5625 440.188 94.6719 440.188 96.6094V102H438.531ZM446.984 102.156C444.164 102.156 442.562 100.625 442.562 97.8438C442.562 95.1406 444.07 93.5625 446.766 93.5625C448.375 93.5625 449.578 94.1875 450.07 95.2812L448.797 96.2422C448.328 95.4844 447.57 95.0469 446.703 95.0469C445.141 95.0469 444.234 96.0312 444.234 97.7656C444.234 99.6562 445.289 100.672 447.172 100.672C447.945 100.672 448.719 100.594 449.453 100.469L449.641 101.922C448.781 102.109 447.852 102.156 446.984 102.156ZM457.281 102V96.6094C457.281 95.5625 456.734 94.9688 455.797 94.9688C454.5 94.9688 453.844 95.75 453.844 97.3438V102H452.188V90.2812H453.844V95.2188H454C454.094 94.1094 454.797 93.5625 456.188 93.5625C457.938 93.5625 458.938 94.6719 458.938 96.6094V102H457.281ZM464.938 102.156C464.297 102.156 463.781 101.641 463.781 101C463.781 100.359 464.297 99.8438 464.938 99.8438C465.578 99.8438 466.094 100.359 466.094 101C466.094 101.641 465.578 102.156 464.938 102.156Z" fill="black"/>
<path d="M290.917 62L381 62" stroke="black" stroke-width="2"/>
<path d="M384 62L375.75 68.0622L375.75 55.9378L384 62Z" fill="black"/>
</svg>
