<svg width="24" height="24" viewBox="0 0 24 24" fill="none" xmlns="http://www.w3.org/2000/svg">
<g clip-path="url(#clip0_127_10)">
<path d="M1 6.07692C1 15.423 8.57703 23 17.9231 23H20.4615C21.1348 23 21.7804 22.7326 22.2565 22.2565C22.7326 21.7804 23 21.1348 23 20.4615V18.9136C23 18.3315 22.604 17.8238 22.0388 17.6828L17.0487 16.435C16.5523 16.3109 16.0311 16.497 15.7253 16.9054L14.631 18.3642C14.3128 18.7884 13.7634 18.9757 13.2658 18.7929C11.4188 18.1139 9.74151 17.0415 8.35001 15.65C6.95851 14.2585 5.88611 12.5812 5.20708 10.7342C5.02431 10.2366 5.21159 9.68718 5.6358 9.36903L7.09456 8.27467C7.5041 7.96892 7.68913 7.44656 7.56503 6.95128L6.31723 1.96123C6.24857 1.68673 6.09015 1.44305 5.86714 1.26889C5.64413 1.09474 5.36932 1.00009 5.08636 1H3.53846C2.86522 1 2.21955 1.26744 1.7435 1.7435C1.26744 2.21955 1 2.86522 1 3.53846V6.07692Z" stroke="black" stroke-width="2" stroke-linecap="round" stroke-linejoin="round"/>
</g>
<defs>
<clipPath id="clip0_127_10">
<rect width="24" height="24" fill="white"/>
</clipPath>
</defs>
</svg>
