<svg width="339" height="254" viewBox="0 0 339 254" fill="none" xmlns="http://www.w3.org/2000/svg">
<path d="M81 24.9999C81 43.4999 77.8499 88.9999 75 117.5C68.5 182.5 66.1754 235.317 68.5 242M4 128C58.8333 133.667 184.9 146.1 188.5 82.5C192.1 18.9 191.333 25.6667 190.5 37C189 76 186.9 158.3 190.5 175.5C195 197 212.5 280.5 269.5 238M158.5 25C161.5 23.3333 169 21 175 20.0001C182.5 18.0001 269 2.00001 324 4.50001C354.899 5.90452 311.019 28.019 269.5 67.5C237.115 98.2948 211.5 122 193.5 153.5" stroke="white" stroke-width="8" stroke-linecap="round" stroke-linejoin="round"/>
</svg>
